<?xml version="1.0" encoding="utf-8"?>
<!-- Generator: Adobe Illustrator 16.0.0, SVG Export Plug-In . SVG Version: 6.00 Build 0)  -->
<!DOCTYPE svg PUBLIC "-//W3C//DTD SVG 1.1//EN" "http://www.w3.org/Graphics/SVG/1.1/DTD/svg11.dtd">
<svg version="1.1" id="Layer_1" xmlns="http://www.w3.org/2000/svg" xmlns:xlink="http://www.w3.org/1999/xlink" x="0px" y="0px"
	 width="612px" height="612px" viewBox="0 0 612 612" enable-background="new 0 0 612 612" xml:space="preserve">
<g transform="matrix(0.344013, 0, 0, 0.344013, 0, 0)">
	<g>
		<path fill-rule="evenodd" clip-rule="evenodd" fill="#FFFFFF" d="M0.344,612.343c0-203.999,0-407.999,0-611.999
			c204,0,408,0,611.999,0c0,204,0,408,0,611.999C408.344,612.343,204.344,612.343,0.344,612.343z M204.003,472.556
			c0,2.945,0.036,6.266-0.007,9.585c-0.086,6.676-0.202,13.351-0.342,20.026c-0.025,1.183,0.216,1.989,1.474,2.465
			c1.494,0.565,2.862,1.455,4.332,2.096c3.228,1.406,6.499,2.717,9.725,4.129c1.07,0.469,2.018,1.217,3.088,1.686
			c3.854,1.69,7.762,3.262,11.602,4.983c3.304,1.48,6.514,3.173,9.82,4.649c4.563,2.038,9.178,3.962,13.771,5.934
			c2.245,0.963,4.558,1.796,6.709,2.933c1.213,0.642,2.104,0.603,3.058-0.229c0.834-0.727,1.645-1.48,2.458-2.23
			c3.033-2.796,6.048-5.61,9.097-8.388c1.877-1.709,3.772-3.403,5.723-5.028c1.153-0.96,2.489-1.703,3.639-2.667
			c1.617-1.357,3.162-2.804,4.692-4.26c1.222-1.163,2.312-2.469,3.574-3.583c2.296-2.026,4.685-3.947,7.019-5.931
			c3.333-2.831,6.654-5.676,9.975-8.52c2.007-1.718,4.051-3.394,5.993-5.182c2.717-2.501,5.354-5.089,8.03-7.634
			c0.119-0.113,0.308-0.15,0.432-0.26c1.425-1.248,2.802-2.555,4.274-3.744c1.829-1.478,3.384-3.401,6.057-3.524
			c2.538-0.117,5.065-0.475,7.604-0.614c4.761-0.262,9.526-0.102,14.277-0.963c3.052-0.554,6.249-0.292,9.379-0.444
			c4.143-0.201,8.282-0.471,12.426-0.673c5.173-0.252,10.348-0.461,15.521-0.697c2.271-0.104,4.55-0.158,6.812-0.368
			c1.96-0.182,3.925-0.448,5.848-0.86c3.066-0.657,6.12-1.396,9.144-2.23c3.599-0.992,7.197-2.015,10.727-3.229
			c2.273-0.783,4.362-2.106,6.638-2.883c4.499-1.536,8.596-3.825,12.586-6.327c2.553-1.601,4.993-3.378,7.498-5.054
			c1.258-0.842,2.66-1.503,3.801-2.476c2.708-2.31,5.248-4.816,7.949-7.135c4.627-3.972,8.62-8.513,12.281-13.363
			c1.464-1.939,3.086-3.796,4.289-5.889c2.117-3.688,4.311-7.396,5.85-11.338c2.148-5.507,3.992-11.169,5.453-16.896
			c0.966-3.79,1.228-7.799,1.454-11.729c0.338-5.86-0.259-11.693-0.933-17.526c-0.488-4.229-0.444-8.519-0.754-12.773
			c-0.254-3.498-0.72-6.98-1.017-10.476c-0.489-5.754-0.92-11.514-1.365-17.271c-0.049-0.626,0.013-1.264-0.059-1.886
			c-0.429-3.752-0.802-7.512-1.351-11.246c-0.413-2.817-0.939-5.63-1.645-8.387c-0.502-1.964-1.436-3.814-2.083-5.747
			c-1.213-3.616-2.296-7.251-4.4-10.527c-1.81-2.818-3.164-5.888-5.197-8.625c-2.519-3.389-4.762-6.963-7.888-9.872
			c-0.894-0.833-1.364-2.258-2.361-2.816c-3.077-1.723-4.833-4.6-6.723-7.307c-2.157-3.09-3.95-6.433-5.937-9.643
			c-1.549-2.502-3.173-4.958-4.729-7.458c-1.671-2.685-3.258-5.422-4.961-8.086c-1.981-3.099-4.09-6.117-6.067-9.218
			c-1.751-2.747-3.367-5.578-5.099-8.337c-1.56-2.485-3.191-4.924-4.796-7.38c-1.422-2.179-1.383-3.079,0.229-5.101
			c0.265-0.331,0.543-0.653,0.777-1.005c1.949-2.935,3.314-6.187,5.62-8.969c2.189-2.643,3.649-5.894,5.41-8.89
			c0.989-1.684,1.889-3.423,2.917-5.082c1.428-2.301,2.911-4.57,4.437-6.807c0.307-0.449,0.909-0.989,1.377-0.99
			c4.147-0.013,8.295,0.135,12.443,0.139c3.759,0.004,7.519-0.136,11.277-0.167c3.938-0.033,7.876-0.027,11.814-0.008
			c4.145,0.02,8.29,0.129,12.434,0.092c2.12-0.019,2.121-0.126,2.121,1.995c0,37.956,0,75.911,0,113.867c0,0.723,0,1.445,0,2.145
			c17.211,0,34.2,0,51.285,0c0-39.336,0-78.541,0-117.959c17.235,0,34.374,0,51.643,0c0-16.858,0-33.617,0-50.474
			c-0.542,0-1.11,0-1.679,0c-59.17,0-118.34,0-177.51,0c-0.344,0-0.737-0.106-1.021,0.025c-0.524,0.243-1.153,0.518-1.441,0.969
			c-1.573,2.459-3.043,4.986-4.575,7.472c-1.144,1.854-2.338,3.675-3.492,5.521c-0.97,1.549-1.914,3.114-2.873,4.67
			c-0.856,1.389-1.74,2.761-2.572,4.165c-1.335,2.253-2.559,4.575-3.973,6.777c-1.674,2.608-3.5,5.118-5.388,7.855
			c-0.715-1.001-1.563-2.07-2.283-3.218c-1.85-2.946-3.624-5.939-5.466-8.89c-1.396-2.237-2.9-4.408-4.261-6.665
			c-1.524-2.53-2.845-5.186-4.427-7.677c-1.981-3.12-4.354-6.01-6.13-9.234c-0.883-1.602-1.825-1.792-3.333-1.789
			c-18.061,0.031-36.121,0.02-54.182,0.02c-0.653,0-1.307,0-2.494,0c1.252,1.698,2.267,2.919,3.107,4.25
			c1.791,2.836,3.448,5.757,5.241,8.592c1.681,2.659,3.527,5.214,5.189,7.884c1.936,3.109,3.756,6.29,5.612,9.447
			c0.962,1.636,1.829,3.332,2.856,4.924c2.296,3.56,4.688,7.058,6.996,10.61c1.086,1.672,2.041,3.429,3.105,5.117
			c0.756,1.2,1.632,2.324,2.39,3.522c1.798,2.84,3.578,5.692,5.323,8.565c0.751,1.238,1.329,2.584,2.11,3.802
			c1.252,1.952,2.675,3.796,3.903,5.762c2.29,3.663,4.521,7.364,6.696,11.096c0.293,0.502,0.38,1.433,0.108,1.899
			c-1.08,1.85-2.384,3.566-3.523,5.384c-1.819,2.903-3.332,5.965-5.458,8.718c-2.242,2.904-3.892,6.266-5.805,9.424
			c-2.366,3.905-4.725,7.815-7.112,11.708c-0.905,1.476-1.807,3.02-3.662,3.473c-3.661,0.895-7.334,1.737-11.073,2.617
			c1.259-2.486,2.617-4.845,3.667-7.334c1.077-2.556,1.854-5.239,2.809-8.001c-0.867,0-1.495,0-2.123,0
			c-15.883,0-31.764,0.014-47.646-0.016c-2.12-0.004-4.28-0.322-4.886,2.526c-0.04,0.189-0.304,0.332-0.465,0.495
			c-1.34,1.366-2.751,2.671-4.006,4.112c-2.417,2.777-5.707,4.214-8.934,5.556c-4.46,1.855-9.238,2.294-14.072,1.881
			c-1.513-0.129-3.055-0.048-4.546-0.291c-3.279-0.533-6.448-1.447-9.45-2.946c-3.056-1.526-6.039-3.112-8.44-5.617
			c-0.721-0.752-1.742-1.264-2.322-2.097c-2.651-3.814-5.544-7.507-6.788-12.136c0.187-0.021,0.46,0.027,0.631-0.083
			c1.231-0.8,2.396-1.111,3.712-0.063c0.306,0.244,1.064-0.114,1.616-0.138c0.941-0.041,1.884-0.039,2.826-0.051
			c0.788-0.011,1.576-0.014,2.364-0.028c0.807-0.015,1.614-0.043,2.421-0.057c0.807-0.013,1.615-0.027,2.422-0.015
			c0.922,0.014,1.843,0.067,2.765,0.084c0.788,0.014,1.578,0.031,2.364-0.006c0.666-0.032,1.327-0.18,1.993-0.205
			c0.975-0.037,1.953-0.017,2.929-0.008c0.762,0.008,1.523,0.042,2.285,0.052c0.942,0.013,1.884,0.024,2.827,0.016
			c0.643-0.006,1.286-0.064,1.929-0.071c0.977-0.01,1.953-0.001,2.929,0.008c0.764,0.007,1.527,0.026,2.291,0.038
			c0.826,0.013,1.652,0.04,2.478,0.03c0.758-0.009,1.515-0.076,2.272-0.084c0.976-0.01,1.951,0.014,2.926,0.023
			c0.765,0.007,1.531,0.009,2.296,0.022c0.826,0.014,1.652,0.041,2.479,0.054c0.788,0.013,1.576,0.009,2.363,0.023
			c0.922,0.017,1.844,0.051,2.766,0.067c0.692,0.012,1.385-0.003,2.077,0.01c0.788,0.015,1.576,0.059,2.364,0.069
			c0.941,0.012,1.883,0.01,2.824-0.003c0.788-0.01,1.576-0.052,2.364-0.066c0.807-0.014,1.614-0.027,2.421-0.012
			c0.788,0.014,1.575,0.081,2.363,0.09c0.942,0.011,1.884-0.027,2.826-0.02c0.643,0.005,1.285,0.072,1.927,0.079
			c0.976,0.01,1.952-0.005,2.928-0.014c0.764-0.007,1.529-0.021,2.293-0.033c0.942-0.014,1.884-0.045,2.825-0.039
			c0.642,0.004,1.282,0.083,1.924,0.09c0.976,0.01,1.952,0.006,2.928-0.029c0.786-0.028,1.569-0.123,2.355-0.166
			c0.672-0.038,1.345-0.051,2.017-0.061c0.942-0.014,1.885-0.028,2.826-0.016c0.788,0.01,1.575,0.071,2.363,0.083
			c0.922,0.015,1.845,0.011,2.767-0.002c0.673-0.01,1.345-0.063,2.018-0.072c0.941-0.014,1.884-0.014,2.826-0.002
			c0.788,0.01,1.575,0.053,2.363,0.067c0.807,0.014,1.615,0.04,2.421,0.007c0.747-0.03,1.614-0.412,2.214-0.15
			c2.573,1.125,4.263,0.359,4.656-2.311c0.148-1.003,0.287-2.011,0.369-3.021c0.351-4.287,0.836-8.572,0.955-12.867
			c0.076-2.755-0.487-5.522-0.61-8.291c-0.281-6.353-1.46-12.515-3.803-18.425c-1.676-4.227-3.499-8.396-5.247-12.595
			c-1.786-4.292-4.49-8.026-7.136-11.797c-0.677-0.964-1.256-2.017-2.043-2.88c-2.263-2.478-4.547-4.943-6.941-7.291
			c-2.272-2.228-4.558-4.485-7.088-6.397c-3.255-2.459-6.716-4.658-10.175-6.833c-2.298-1.445-4.633-2.947-7.15-3.904
			c-5.123-1.948-10.286-3.96-15.608-5.171c-5.466-1.243-11.132-2.041-16.729-2.153c-5.973-0.12-11.97,0.742-17.948,1.279
			c-1.776,0.159-3.548,0.568-5.272,1.043c-1.568,0.432-3.067,1.113-4.601,1.676c-3.46,1.27-7.068,2.242-10.346,3.878
			c-3.838,1.917-7.394,4.4-11.062,6.655c-1.566,0.963-3.253,1.798-4.626,2.99c-3.262,2.833-6.495,5.72-9.509,8.811
			c-4.853,4.977-9.169,10.388-12.335,16.641c-0.391,0.772-1.202,1.339-1.562,2.119c-1.145,2.482-2.238,4.993-3.22,7.542
			c-1.109,2.879-2.282,5.76-3.055,8.736c-1.083,4.167-1.871,8.414-2.69,12.645c-0.472,2.434-1.089,4.909-1.049,7.356
			c0.059,3.682-0.647,7.382,0.525,11.082c0.668,2.108,0.528,4.47,0.773,6.715c0.701,6.404,2.144,12.602,4.782,18.522
			c1.765,3.959,3.077,8.105,5.572,11.739c1.629,2.373,2.761,5.092,4.437,7.426c1.795,2.501,3.833,4.865,6.004,7.051
			c3.363,3.386,6.846,6.665,10.438,9.808c2.323,2.032,4.929,3.74,7.473,5.642c-2.45,0.532-4.811,0.953-7.119,1.571
			c-2.543,0.681-5.014,1.633-7.56,2.302c-3.03,0.796-6.11,1.397-9.16,2.12c-2.393,0.568-4.779,1.169-7.157,1.8
			c-2.386,0.632-4.758,1.315-7.135,1.982c-3.065,0.86-6.161,1.628-9.181,2.625c-2.012,0.665-3.887,1.734-5.872,2.494
			c-4.299,1.645-8.642,3.146-12.225,6.231c-1.729,1.489-3.578,2.886-5.535,4.052c-2.896,1.726-5.302,3.966-7.768,6.227
			c-3.757,3.444-7.026,7.293-10.199,11.235c-1.765,2.194-3.384,4.523-4.887,6.907c-1.812,2.873-3.491,5.835-5.107,8.823
			c-0.87,1.61-1.51,3.348-2.217,5.043c-1.365,3.276-2.952,6.486-3.992,9.864c-1.271,4.134-2.118,8.401-3.061,12.63
			c-0.367,1.644-0.467,3.345-0.738,5.012c-0.424,2.611-1.122,5.202-1.282,7.827c-0.224,3.656-0.129,7.338-0.027,11.004
			c0.048,1.715,0.369,3.432,0.678,5.127c0.391,2.143,0.891,4.265,1.352,6.394c0.485,2.238,0.772,4.548,1.524,6.694
			c0.969,2.767,2.325,5.398,3.496,8.097c1.468,3.384,2.828,6.794,5.281,9.675c2.231,2.619,4.125,5.525,6.338,8.16
			c1.243,1.479,2.802,2.703,4.275,3.976c2.594,2.243,4.992,4.837,7.9,6.565c6.479,3.853,13.203,7.297,19.864,10.838
			c3.399,1.807,6.896,3.431,10.317,5.197c3.176,1.641,6.27,3.443,9.474,5.023c3.205,1.581,6.504,2.968,9.758,4.45
			c2.563,1.168,5.129,2.33,7.674,3.537c1.537,0.729,3.046,1.521,4.55,2.319C198.874,469.778,201.321,471.11,204.003,472.556z
			 M116.56,114.983c0,24.365,0,48.603,0,73.046c-0.688-0.841-1.275-1.42-1.7-2.101c-2.447-3.914-4.822-7.874-7.285-11.777
			c-2.826-4.478-5.764-8.885-8.568-13.377c-2.914-4.667-5.678-9.428-8.595-14.094c-2.548-4.076-5.242-8.061-7.827-12.113
			c-2.057-3.224-4.046-6.491-6.069-9.736c-1.699-2.726-3.552-5.37-5.037-8.207c-0.658-1.256-1.235-1.755-2.64-1.751
			c-16.281,0.043-32.563,0.026-48.844,0.031c-0.552,0-1.104,0.05-1.637,0.076c0,56.229,0,112.316,0,168.402
			c16.5,0,32.874,0,49.469,0c0-26.326,0-52.568,0-78.81c1.575,2.156,2.783,4.403,4.158,6.542c2.303,3.58,4.812,7.03,7.052,10.646
			c2.648,4.275,5.021,8.721,7.666,12.999c2.768,4.478,5.732,8.833,8.579,13.263c1.88,2.925,3.72,5.876,5.55,8.833
			c2.005,3.239,3.968,6.505,5.968,9.747c2.071,3.355,4.148,6.707,6.255,10.04c1.032,1.632,2.355,3.12,3.142,4.856
			c0.632,1.394,1.264,2.008,2.85,2.003c15.077-0.055,30.155-0.033,45.233-0.033c0.602,0,1.204,0,1.793,0
			c0-56.307,0-112.354,0-168.484C149.615,114.983,133.241,114.983,116.56,114.983z"/>
		<path fill-rule="evenodd" clip-rule="evenodd" fill="#4AC7EE" d="M204.003,472.556c-2.683-1.445-5.129-2.777-7.59-4.083
			c-1.504-0.798-3.013-1.59-4.55-2.319c-2.544-1.207-5.111-2.369-7.674-3.537c-3.253-1.482-6.553-2.869-9.758-4.45
			c-3.204-1.58-6.298-3.383-9.474-5.023c-3.421-1.767-6.917-3.391-10.317-5.197c-6.661-3.541-13.385-6.985-19.864-10.838
			c-2.908-1.729-5.306-4.322-7.9-6.565c-1.473-1.272-3.032-2.496-4.275-3.976c-2.214-2.635-4.107-5.541-6.338-8.16
			c-2.453-2.881-3.813-6.291-5.281-9.675c-1.171-2.698-2.527-5.33-3.496-8.097c-0.752-2.146-1.039-4.456-1.524-6.694
			c-0.461-2.129-0.961-4.251-1.352-6.394c-0.309-1.695-0.63-3.412-0.678-5.127c-0.102-3.666-0.197-7.348,0.027-11.004
			c0.16-2.625,0.858-5.216,1.282-7.827c0.271-1.667,0.371-3.368,0.738-5.012c0.943-4.229,1.79-8.496,3.061-12.63
			c1.04-3.378,2.626-6.588,3.992-9.864c0.707-1.695,1.347-3.433,2.217-5.043c1.616-2.988,3.295-5.95,5.107-8.823
			c1.503-2.384,3.122-4.713,4.887-6.907c3.173-3.942,6.442-7.791,10.199-11.235c2.465-2.261,4.872-4.5,7.768-6.227
			c1.957-1.167,3.806-2.563,5.535-4.052c3.583-3.085,7.926-4.586,12.225-6.231c1.985-0.76,3.859-1.829,5.872-2.494
			c3.02-0.998,6.116-1.765,9.181-2.625c2.377-0.667,4.75-1.35,7.135-1.982c2.378-0.63,4.764-1.232,7.157-1.8
			c3.049-0.723,6.13-1.324,9.16-2.12c2.546-0.669,5.017-1.621,7.56-2.302c2.308-0.618,4.669-1.039,7.119-1.571
			c-2.544-1.902-5.15-3.61-7.473-5.642c-3.591-3.143-7.075-6.421-10.438-9.808c-2.171-2.187-4.208-4.55-6.004-7.051
			c-1.675-2.334-2.807-5.054-4.437-7.426c-2.495-3.634-3.807-7.78-5.572-11.739c-2.639-5.921-4.082-12.119-4.782-18.522
			c-0.246-2.245-0.105-4.607-0.773-6.715c-1.172-3.699-0.466-7.399-0.525-11.082c-0.04-2.447,0.578-4.922,1.049-7.356
			c0.82-4.231,1.607-8.478,2.69-12.645c0.773-2.977,1.946-5.857,3.055-8.736c0.982-2.55,2.075-5.061,3.22-7.542
			c0.36-0.78,1.17-1.347,1.562-2.119c3.166-6.253,7.483-11.664,12.335-16.641c3.014-3.091,6.247-5.978,9.509-8.811
			c1.373-1.192,3.06-2.027,4.626-2.99c3.668-2.255,7.224-4.739,11.062-6.655c3.277-1.636,6.886-2.608,10.346-3.878
			c1.533-0.563,3.032-1.244,4.601-1.676c1.725-0.475,3.496-0.884,5.272-1.043c5.978-0.537,11.976-1.399,17.948-1.279
			c5.597,0.112,11.263,0.91,16.729,2.153c5.323,1.21,10.485,3.223,15.608,5.171c2.517,0.957,4.852,2.459,7.15,3.904
			c3.458,2.175,6.92,4.374,10.175,6.833c2.53,1.912,4.815,4.169,7.088,6.397c2.395,2.348,4.679,4.813,6.941,7.291
			c0.787,0.863,1.366,1.916,2.043,2.88c2.646,3.771,5.35,7.505,7.136,11.797c1.748,4.199,3.571,8.368,5.247,12.595
			c2.343,5.91,3.521,12.072,3.803,18.425c0.123,2.769,0.687,5.535,0.61,8.291c-0.119,4.295-0.604,8.58-0.955,12.867
			c-0.082,1.011-0.221,2.018-0.369,3.021c-0.394,2.669-2.083,3.436-4.656,2.311c-0.6-0.262-1.467,0.12-2.214,0.15
			c-0.806,0.033-1.614,0.007-2.421-0.007c-0.788-0.014-1.575-0.057-2.363-0.067c-0.942-0.012-1.885-0.012-2.826,0.002
			c-0.673,0.009-1.345,0.062-2.018,0.072c-0.922,0.013-1.845,0.018-2.767,0.002c-0.788-0.012-1.575-0.073-2.363-0.083
			c-0.941-0.012-1.884,0.002-2.826,0.016c-0.672,0.01-1.345,0.023-2.017,0.061c-0.786,0.043-1.569,0.138-2.355,0.166
			c-0.976,0.035-1.952,0.039-2.928,0.029c-0.642-0.007-1.282-0.086-1.924-0.09c-0.941-0.006-1.883,0.025-2.825,0.039
			c-0.764,0.012-1.529,0.026-2.293,0.033c-0.976,0.009-1.952,0.024-2.928,0.014c-0.643-0.007-1.285-0.074-1.927-0.079
			c-0.942-0.008-1.884,0.031-2.826,0.02c-0.788-0.009-1.575-0.077-2.363-0.09c-0.807-0.015-1.614-0.002-2.421,0.012
			c-0.788,0.014-1.576,0.056-2.364,0.066c-0.941,0.013-1.883,0.015-2.824,0.003c-0.788-0.01-1.576-0.054-2.364-0.069
			c-0.692-0.013-1.385,0.001-2.077-0.01c-0.922-0.016-1.844-0.05-2.766-0.067c-0.788-0.015-1.576-0.011-2.363-0.023
			c-0.826-0.013-1.652-0.041-2.479-0.054c-0.765-0.013-1.531-0.015-2.296-0.022c-0.975-0.009-1.951-0.033-2.926-0.023
			c-0.757,0.008-1.514,0.076-2.272,0.084c-0.826,0.01-1.652-0.017-2.478-0.03c-0.763-0.012-1.527-0.031-2.291-0.038
			c-0.976-0.009-1.952-0.018-2.929-0.008c-0.643,0.007-1.286,0.065-1.929,0.071c-0.942,0.008-1.885-0.003-2.827-0.016
			c-0.762-0.01-1.523-0.044-2.285-0.052c-0.976-0.009-1.954-0.029-2.929,0.008c-0.666,0.025-1.327,0.173-1.993,0.205
			c-0.786,0.038-1.576,0.021-2.364,0.006c-0.922-0.017-1.843-0.07-2.765-0.084c-0.807-0.012-1.615,0.002-2.422,0.015
			c-0.807,0.013-1.614,0.042-2.421,0.057c-0.788,0.014-1.576,0.017-2.364,0.028c-0.942,0.013-1.885,0.01-2.826,0.051
			c-0.552,0.024-1.31,0.381-1.616,0.138c-1.316-1.048-2.481-0.737-3.712,0.063c-0.17,0.11-0.444,0.062-0.631,0.083
			c1.244,4.629,4.137,8.322,6.788,12.136c0.58,0.833,1.601,1.344,2.322,2.097c2.401,2.505,5.385,4.091,8.44,5.617
			c3.002,1.499,6.171,2.413,9.45,2.946c1.492,0.243,3.033,0.162,4.546,0.291c4.834,0.413,9.611-0.026,14.072-1.881
			c3.227-1.342,6.516-2.778,8.934-5.556c1.254-1.441,2.666-2.746,4.006-4.112c0.161-0.164,0.425-0.306,0.465-0.495
			c0.606-2.848,2.767-2.531,4.886-2.526c15.882,0.03,31.763,0.016,47.646,0.016c0.628,0,1.256,0,2.123,0
			c-0.955,2.762-1.731,5.446-2.809,8.001c-1.05,2.489-2.408,4.848-3.667,7.334c3.739-0.88,7.412-1.722,11.073-2.617
			c1.855-0.453,2.757-1.997,3.662-3.473c2.388-3.893,4.746-7.803,7.112-11.708c1.913-3.159,3.563-6.52,5.805-9.424
			c2.126-2.753,3.639-5.815,5.458-8.718c1.14-1.817,2.443-3.534,3.523-5.384c0.271-0.467,0.185-1.397-0.108-1.899
			c-2.175-3.732-4.406-7.433-6.696-11.096c-1.229-1.966-2.651-3.81-3.903-5.762c-0.781-1.218-1.359-2.564-2.11-3.802
			c-1.745-2.873-3.525-5.725-5.323-8.565c-0.758-1.198-1.634-2.323-2.39-3.522c-1.064-1.688-2.02-3.444-3.105-5.117
			c-2.308-3.553-4.7-7.05-6.996-10.61c-1.027-1.592-1.895-3.289-2.856-4.924c-1.856-3.157-3.677-6.338-5.612-9.447
			c-1.662-2.67-3.509-5.225-5.189-7.884c-1.793-2.835-3.45-5.756-5.241-8.592c-0.841-1.331-1.855-2.551-3.107-4.25
			c1.188,0,1.841,0,2.494,0c18.061,0,36.121,0.011,54.182-0.02c1.508-0.002,2.45,0.188,3.333,1.789
			c1.776,3.224,4.148,6.114,6.13,9.234c1.582,2.491,2.902,5.147,4.427,7.677c1.36,2.257,2.865,4.428,4.261,6.665
			c1.842,2.951,3.616,5.944,5.466,8.89c0.721,1.148,1.568,2.217,2.283,3.218c1.888-2.737,3.714-5.248,5.388-7.855
			c1.414-2.202,2.638-4.524,3.973-6.777c0.832-1.403,1.716-2.776,2.572-4.165c0.959-1.556,1.903-3.121,2.873-4.67
			c1.154-1.846,2.349-3.667,3.492-5.521c1.532-2.486,3.002-5.012,4.575-7.472c0.288-0.451,0.917-0.726,1.441-0.969
			c0.283-0.131,0.677-0.025,1.021-0.025c59.17,0,118.34,0,177.51,0c0.568,0,1.137,0,1.679,0c0,16.857,0,33.616,0,50.474
			c-17.269,0-34.407,0-51.643,0c0,39.419,0,78.623,0,117.959c-17.085,0-34.074,0-51.285,0c0-0.7,0-1.422,0-2.145
			c0-37.956,0-75.912,0-113.867c0-2.122-0.001-2.014-2.121-1.995c-4.144,0.038-8.289-0.072-12.434-0.092
			c-3.938-0.019-7.876-0.024-11.814,0.008c-3.759,0.031-7.519,0.171-11.277,0.167c-4.148-0.004-8.296-0.152-12.443-0.139
			c-0.468,0.001-1.07,0.541-1.377,0.99c-1.525,2.237-3.009,4.505-4.437,6.807c-1.028,1.659-1.928,3.398-2.917,5.082
			c-1.761,2.996-3.221,6.247-5.41,8.89c-2.306,2.782-3.671,6.034-5.62,8.969c-0.234,0.352-0.513,0.674-0.777,1.005
			c-1.612,2.022-1.651,2.922-0.229,5.101c1.604,2.457,3.236,4.896,4.796,7.38c1.731,2.759,3.348,5.59,5.099,8.337
			c1.978,3.101,4.086,6.119,6.067,9.218c1.703,2.664,3.29,5.401,4.961,8.086c1.556,2.499,3.18,4.955,4.729,7.458
			c1.986,3.21,3.779,6.553,5.937,9.643c1.89,2.707,3.646,5.583,6.723,7.307c0.997,0.559,1.468,1.984,2.361,2.816
			c3.126,2.909,5.369,6.482,7.888,9.872c2.033,2.736,3.388,5.807,5.197,8.625c2.104,3.276,3.188,6.911,4.4,10.527
			c0.647,1.932,1.581,3.782,2.083,5.747c0.705,2.757,1.231,5.57,1.645,8.387c0.549,3.734,0.922,7.494,1.351,11.246
			c0.071,0.622,0.01,1.26,0.059,1.886c0.445,5.758,0.876,11.518,1.365,17.271c0.297,3.495,0.763,6.978,1.017,10.476
			c0.31,4.255,0.266,8.544,0.754,12.773c0.674,5.833,1.271,11.666,0.933,17.526c-0.227,3.931-0.488,7.939-1.454,11.729
			c-1.461,5.727-3.305,11.389-5.453,16.896c-1.539,3.942-3.732,7.65-5.85,11.338c-1.203,2.093-2.825,3.949-4.289,5.889
			c-3.661,4.851-7.654,9.392-12.281,13.363c-2.701,2.318-5.241,4.825-7.949,7.135c-1.141,0.973-2.543,1.634-3.801,2.476
			c-2.505,1.676-4.945,3.453-7.498,5.054c-3.99,2.502-8.087,4.791-12.586,6.327c-2.275,0.776-4.364,2.1-6.638,2.883
			c-3.529,1.214-7.128,2.236-10.727,3.229c-3.023,0.834-6.077,1.573-9.144,2.23c-1.923,0.412-3.888,0.679-5.848,0.86
			c-2.262,0.21-4.54,0.265-6.812,0.368c-5.173,0.236-10.348,0.445-15.521,0.697c-4.144,0.202-8.283,0.472-12.426,0.673
			c-3.13,0.152-6.327-0.109-9.379,0.444c-4.751,0.861-9.517,0.701-14.277,0.963c-2.539,0.14-5.066,0.497-7.604,0.614
			c-2.673,0.123-4.228,2.047-6.057,3.524c-1.473,1.189-2.85,2.496-4.274,3.744c-0.124,0.109-0.313,0.146-0.432,0.26
			c-2.676,2.545-5.313,5.133-8.03,7.634c-1.942,1.788-3.986,3.464-5.993,5.182c-3.321,2.844-6.643,5.688-9.975,8.52
			c-2.334,1.983-4.723,3.904-7.019,5.931c-1.262,1.114-2.352,2.42-3.574,3.583c-1.53,1.456-3.075,2.902-4.692,4.26
			c-1.15,0.964-2.485,1.707-3.639,2.667c-1.95,1.625-3.846,3.319-5.723,5.028c-3.049,2.777-6.064,5.592-9.097,8.388
			c-0.813,0.75-1.625,1.504-2.458,2.23c-0.954,0.831-1.845,0.87-3.058,0.229c-2.152-1.137-4.465-1.97-6.709-2.933
			c-4.593-1.972-9.208-3.896-13.771-5.934c-3.306-1.477-6.516-3.169-9.82-4.649c-3.84-1.722-7.748-3.293-11.602-4.983
			c-1.071-0.469-2.018-1.217-3.088-1.686c-3.226-1.412-6.497-2.723-9.725-4.129c-1.47-0.641-2.837-1.53-4.332-2.096
			c-1.258-0.476-1.499-1.282-1.474-2.465c0.14-6.676,0.255-13.351,0.342-20.026C204.039,478.821,204.003,475.501,204.003,472.556z
			 M226.35,476.374c1.103-1.206,2.05-2.295,3.052-3.329c3.444-3.556,6.923-7.078,10.36-10.641
			c4.062-4.211,8.082-8.462,12.142-12.675c2.82-2.926,5.671-5.822,8.52-8.72c3.86-3.926,7.746-7.825,11.593-11.764
			c2.33-2.384,4.613-4.813,6.903-7.236c0.403-0.427,0.888-0.868,1.072-1.395c0.496-1.423,1.641-1.821,2.9-1.919
			c3.678-0.285,7.362-0.509,11.046-0.704c4.829-0.257,9.66-0.461,14.49-0.691c4.772-0.229,9.546-0.459,14.318-0.691
			c4.657-0.227,9.313-0.544,13.974-0.663c4.833-0.123,9.649-0.102,14.447-0.993c2.549-0.474,5.218-0.312,7.833-0.414
			c3.188-0.126,6.382-0.175,9.567-0.361c2.139-0.126,4.271-0.394,6.398-0.673c2.28-0.298,4.563-0.615,6.82-1.048
			c2.889-0.553,5.764-1.188,8.625-1.87c1.248-0.297,2.442-0.816,3.672-1.205c1.979-0.624,4.002-1.133,5.944-1.855
			c2.759-1.026,5.468-2.187,8.184-3.324c1.276-0.534,2.546-1.097,3.772-1.734c2.747-1.43,5.479-2.891,8.193-4.382
			c2.319-1.274,4.735-2.427,6.873-3.961c2.886-2.07,5.56-4.438,8.299-6.711c2.487-2.064,5.01-4.096,7.383-6.286
			c1.557-1.437,2.879-3.129,4.302-4.71c2.046-2.274,4.181-4.478,6.104-6.852c1.814-2.24,3.549-4.573,5.057-7.026
			c2.089-3.397,4.182-6.832,5.817-10.456c1.969-4.365,3.827-8.849,5.054-13.461c1.192-4.483,1.771-9.175,2.161-13.813
			c0.346-4.099,0.447-8.297-0.05-12.365c-0.526-4.309-1.312-8.614-2.909-12.771c-1.763-4.587-3.578-9.118-6.257-13.235
			c-1.558-2.393-3.376-4.62-5.13-6.879c-1.137-1.462-2.278-2.94-3.585-4.245c-1.264-1.262-2.754-2.297-4.118-3.462
			c-0.512-0.436-0.885-1.051-1.429-1.429c-2.701-1.879-5.349-3.861-8.188-5.511c-3.253-1.891-6.639-3.573-10.058-5.148
			c-2.221-1.024-4.617-1.663-6.912-2.536c-2.871-1.092-5.987-1.24-8.834-2.569c-1.558-0.727-3.526-0.615-5.318-0.791
			c-4.896-0.48-9.788-1.127-14.695-1.293c-3.729-0.126-7.477,0.511-11.22,0.578c-5.366,0.096-10.466,1.5-15.612,2.757
			c-3.699,0.904-7.439,1.633-11.155,2.466c-2.072,0.465-4.155,0.908-6.191,1.503c-2.252,0.66-4.431,1.577-6.688,2.216
			c-4.681,1.326-9.384,2.573-14.093,3.792c-2.916,0.755-5.856,1.413-8.792,2.087c-2.725,0.626-5.478,1.14-8.181,1.849
			c-2.004,0.525-3.916,1.402-5.922,1.914c-3.345,0.853-6.755,1.451-10.096,2.319c-3.165,0.822-6.256,1.919-9.413,2.774
			c-2.959,0.801-5.97,1.411-8.944,2.161c-4.365,1.101-8.717,2.254-13.076,3.38c-3.182,0.823-6.367,1.634-9.549,2.456
			c-3.514,0.908-7.025,1.828-10.54,2.733c-3.173,0.817-6.35,1.623-9.526,2.432c-4.546,1.159-9.091,2.323-13.64,3.472
			c-2.307,0.582-4.618,1.15-6.934,1.695c-1.303,0.307-2.647,0.461-3.925,0.844c-2.287,0.685-4.504,1.621-6.812,2.216
			c-3.333,0.859-6.757,1.377-10.077,2.283c-3.283,0.895-6.672,1.371-9.83,2.83c-1.717,0.793-3.778,0.814-5.652,1.306
			c-3.942,1.035-7.986,1.816-11.35,4.388c-0.696,0.533-1.576,0.822-2.362,1.24c-2.076,1.103-4.311,1.992-6.179,3.376
			c-2.54,1.883-4.802,4.143-7.176,6.249c-1.426,1.267-2.978,2.427-4.222,3.854c-1.913,2.193-3.683,4.523-5.379,6.892
			c-1.75,2.445-3.508,4.913-4.954,7.54c-1.549,2.814-2.771,5.813-4.074,8.758c-0.885,2.001-1.826,4-2.452,6.086
			c-0.931,3.103-1.852,6.245-2.326,9.438c-0.613,4.128-1.853,8.201-1.488,12.446c0.213,2.483-0.229,4.942,0.575,7.479
			c0.974,3.071,1.324,6.354,1.787,9.569c0.708,4.908,3.028,9.191,5.507,13.28c2.49,4.106,5.636,7.833,9.566,10.763
			c3.102,2.312,6.341,4.384,9.941,5.843c4.422,1.793,9.074,2.696,13.791,2.622c7.333-0.115,14.661-0.628,21.99-0.981
			c4.543-0.219,9.085-0.479,13.63-0.676c5.918-0.256,11.838-0.458,17.757-0.707c0.957-0.04,1.906-0.271,2.861-0.286
			c1.129-0.018,2.34-0.103,3.342,0.287c0.306,0.119,0.043,1.705,0.04,2.62c0,0.058-0.001,0.114-0.002,0.172
			c-0.116,5.768-0.263,11.534-0.337,17.302c-0.052,4.013-0.003,8.027-0.003,12.04c0,2.294-0.009,4.587-0.01,6.88
			C226.349,466.064,226.35,471.018,226.35,476.374z M228.559,177.183c20.52,0,40.917,0,61.521,0
			c-0.523-1.218-0.875-2.334-1.458-3.313c-0.584-0.979-1.491-1.764-2.096-2.735c-2.656-4.264-6.619-6.895-11.034-8.978
			c-5.724-2.7-11.771-3.784-18.073-3.571c-0.687,0.023-1.376-0.001-2.064,0.007c-0.284,0.004-0.581-0.009-0.85,0.065
			c-1.52,0.422-3.067,0.773-4.539,1.326c-3.219,1.208-6.473,2.37-9.565,3.856c-1.657,0.796-3.07,2.155-4.486,3.382
			C232.778,169.944,230.101,173.032,228.559,177.183z"/>
		<path fill-rule="evenodd" clip-rule="evenodd" fill="#4AC7EE" d="M116.56,114.983c16.681,0,33.055,0,49.514,0
			c0,56.13,0,112.177,0,168.484c-0.589,0-1.191,0-1.793,0c-15.078,0-30.156-0.022-45.233,0.033c-1.585,0.005-2.217-0.609-2.85-2.003
			c-0.787-1.736-2.11-3.224-3.142-4.856c-2.107-3.333-4.185-6.684-6.255-10.04c-2-3.242-3.963-6.508-5.968-9.747
			c-1.83-2.957-3.67-5.907-5.55-8.833c-2.847-4.429-5.812-8.785-8.579-13.263c-2.645-4.278-5.018-8.723-7.666-12.999
			c-2.24-3.617-4.749-7.067-7.052-10.646c-1.375-2.139-2.583-4.386-4.158-6.542c0,26.242,0,52.484,0,78.81
			c-16.595,0-32.969,0-49.469,0c0-56.085,0-112.173,0-168.402c0.533-0.026,1.085-0.076,1.637-0.076
			c16.281-0.004,32.563,0.012,48.844-0.031c1.404-0.004,1.982,0.495,2.64,1.751c1.485,2.836,3.338,5.481,5.037,8.207
			c2.022,3.245,4.012,6.512,6.069,9.736c2.585,4.053,5.279,8.038,7.827,12.113c2.917,4.666,5.681,9.426,8.595,14.094
			c2.804,4.492,5.742,8.899,8.568,13.377c2.463,3.903,4.838,7.863,7.285,11.777c0.425,0.68,1.011,1.259,1.7,2.101
			C116.56,163.585,116.56,139.348,116.56,114.983z"/>
		<path fill-rule="evenodd" clip-rule="evenodd" fill="#FFFFFF" d="M226.35,476.374c0-5.356-0.001-10.31,0-15.264
			c0.001-2.293,0.01-4.586,0.01-6.88c0-4.013-0.049-8.027,0.003-12.04c0.075-5.768,0.221-11.534,0.337-17.302
			c0.001-0.058,0.002-0.114,0.002-0.172c0.003-0.915,0.266-2.501-0.04-2.62c-1.002-0.39-2.213-0.305-3.342-0.287
			c-0.955,0.016-1.905,0.246-2.861,0.286c-5.918,0.249-11.839,0.451-17.757,0.707c-4.544,0.196-9.086,0.457-13.63,0.676
			c-7.329,0.354-14.657,0.866-21.99,0.981c-4.717,0.074-9.369-0.829-13.791-2.622c-3.601-1.459-6.84-3.531-9.941-5.843
			c-3.931-2.93-7.077-6.656-9.566-10.763c-2.479-4.089-4.799-8.372-5.507-13.28c-0.463-3.215-0.813-6.498-1.787-9.569
			c-0.804-2.536-0.362-4.995-0.575-7.479c-0.364-4.245,0.875-8.318,1.488-12.446c0.474-3.192,1.396-6.335,2.326-9.438
			c0.626-2.086,1.567-4.085,2.452-6.086c1.303-2.945,2.525-5.943,4.074-8.758c1.446-2.627,3.203-5.095,4.954-7.54
			c1.696-2.368,3.466-4.698,5.379-6.892c1.245-1.427,2.796-2.587,4.222-3.854c2.374-2.106,4.636-4.366,7.176-6.249
			c1.868-1.384,4.103-2.273,6.179-3.376c0.787-0.418,1.666-0.707,2.362-1.24c3.364-2.572,7.407-3.354,11.35-4.388
			c1.874-0.492,3.935-0.513,5.652-1.306c3.158-1.459,6.546-1.935,9.83-2.83c3.32-0.905,6.744-1.424,10.077-2.283
			c2.308-0.595,4.525-1.531,6.812-2.216c1.278-0.383,2.622-0.537,3.925-0.844c2.316-0.545,4.627-1.113,6.934-1.695
			c4.549-1.149,9.094-2.313,13.64-3.472c3.176-0.809,6.353-1.614,9.526-2.432c3.515-0.905,7.025-1.825,10.54-2.733
			c3.182-0.822,6.367-1.633,9.549-2.456c4.359-1.126,8.711-2.279,13.076-3.38c2.974-0.75,5.984-1.36,8.944-2.161
			c3.157-0.854,6.249-1.952,9.413-2.774c3.341-0.868,6.751-1.466,10.096-2.319c2.006-0.511,3.918-1.388,5.922-1.914
			c2.703-0.709,5.456-1.223,8.181-1.849c2.936-0.675,5.876-1.333,8.792-2.087c4.709-1.219,9.412-2.467,14.093-3.792
			c2.257-0.64,4.436-1.556,6.688-2.216c2.036-0.596,4.119-1.038,6.191-1.503c3.716-0.833,7.456-1.563,11.155-2.466
			c5.146-1.257,10.246-2.661,15.612-2.757c3.743-0.067,7.491-0.704,11.22-0.578c4.907,0.167,9.8,0.813,14.695,1.293
			c1.792,0.176,3.761,0.064,5.318,0.791c2.847,1.329,5.963,1.477,8.834,2.569c2.295,0.873,4.691,1.511,6.912,2.536
			c3.419,1.576,6.805,3.258,10.058,5.148c2.839,1.65,5.486,3.632,8.188,5.511c0.544,0.378,0.917,0.993,1.429,1.429
			c1.364,1.166,2.854,2.2,4.118,3.462c1.307,1.304,2.448,2.782,3.585,4.245c1.754,2.26,3.572,4.486,5.13,6.879
			c2.679,4.117,4.494,8.648,6.257,13.235c1.598,4.157,2.383,8.462,2.909,12.771c0.497,4.068,0.396,8.267,0.05,12.365
			c-0.391,4.638-0.969,9.329-2.161,13.813c-1.227,4.612-3.085,9.096-5.054,13.461c-1.636,3.624-3.729,7.059-5.817,10.456
			c-1.508,2.453-3.242,4.786-5.057,7.026c-1.923,2.374-4.058,4.577-6.104,6.852c-1.423,1.581-2.745,3.273-4.302,4.71
			c-2.373,2.19-4.896,4.222-7.383,6.286c-2.739,2.272-5.413,4.641-8.299,6.711c-2.138,1.534-4.554,2.687-6.873,3.961
			c-2.714,1.491-5.446,2.952-8.193,4.382c-1.227,0.638-2.496,1.2-3.772,1.734c-2.716,1.138-5.425,2.298-8.184,3.324
			c-1.942,0.723-3.965,1.231-5.944,1.855c-1.229,0.389-2.424,0.908-3.672,1.205c-2.861,0.683-5.736,1.317-8.625,1.87
			c-2.258,0.433-4.54,0.75-6.82,1.048c-2.127,0.279-4.26,0.547-6.398,0.673c-3.186,0.187-6.379,0.235-9.567,0.361
			c-2.615,0.103-5.284-0.06-7.833,0.414c-4.798,0.892-9.614,0.87-14.447,0.993c-4.66,0.119-9.316,0.437-13.974,0.663
			c-4.772,0.232-9.546,0.463-14.318,0.691c-4.83,0.23-9.662,0.435-14.49,0.691c-3.684,0.195-7.368,0.419-11.046,0.704
			c-1.259,0.098-2.404,0.496-2.9,1.919c-0.184,0.526-0.668,0.968-1.072,1.395c-2.29,2.423-4.573,4.853-6.903,7.236
			c-3.847,3.938-7.733,7.838-11.593,11.764c-2.849,2.897-5.7,5.794-8.52,8.72c-4.061,4.213-8.081,8.464-12.142,12.675
			c-3.437,3.563-6.916,7.085-10.36,10.641C228.4,474.079,227.452,475.168,226.35,476.374z M348.446,373.582
			c0.01,0.044,0.02,0.088,0.028,0.131c0.712-0.148,1.421-0.316,2.136-0.442c2.05-0.362,4.1-0.726,6.155-1.05
			c0.898-0.141,1.25-0.561,0.803-1.391c-0.458-0.851-1.111-1.607-1.489-2.488c-1.968-4.59-3.879-9.204-5.802-13.814
			c-2.286-5.482-4.54-10.978-6.854-16.448c-1.12-2.648-2.408-5.227-3.501-7.886c-0.882-2.145-1.473-4.411-2.391-6.537
			c-1.262-2.919-2.798-5.718-4.057-8.637c-1.988-4.609-3.926-9.245-5.707-13.937c-0.588-1.549-1.369-1.563-2.707-1.283
			c-3.894,0.817-7.821,1.471-11.715,2.288c-0.732,0.154-1.719,0.602-1.991,1.191c-1.268,2.739-2.352,5.564-3.452,8.378
			c-2.005,5.133-3.198,10.559-5.781,15.493c-0.963,1.84-1.408,3.947-2.125,5.92c-1.665,4.582-3.34,9.161-5.03,13.734
			c-1.211,3.278-2.459,6.544-3.679,9.819c-0.233,0.626-0.38,1.284-0.614,1.91c-1.369,3.661-2.747,7.318-4.134,10.972
			c-0.613,1.615-1.303,3.203-1.873,4.833c-0.792,2.265-1.45,4.578-2.267,6.834c-0.511,1.411,0.247,1.441,1.227,1.312
			c4.123-0.547,8.242-1.115,12.364-1.665c1.849-0.246,3.735-0.33,5.535-0.769c0.721-0.175,1.581-1,1.819-1.715
			c0.894-2.689,1.592-5.446,2.291-8.196c0.324-1.273,1.104-1.66,2.324-1.735c1.396-0.085,2.773-0.412,4.168-0.543
			c1.912-0.179,3.741-0.466,5.633-1.021c3.145-0.922,6.53-1.004,9.806-1.498c2.339-0.353,3.418-0.051,3.833,1.328
			c0.58,1.926,0.949,3.928,1.681,5.79c0.421,1.07,0.294,2.858,2.144,2.816c1.34-0.03,2.675-0.321,4.012-0.495
			C342.306,374.382,345.376,373.982,348.446,373.582z M241.499,343.983c0-7.786-0.002-15.438,0.007-23.091
			c0-0.218,0.118-0.433,0.173-0.651c0.496-1.985-0.227-2.759-2.162-2.23c-1.731,0.474-3.415,1.142-5.163,1.531
			c-2.533,0.565-5.094,1.041-7.666,1.384c-1.033,0.138-1.342,0.464-1.378,1.468c-0.188,5.289-0.465,10.575-0.661,15.864
			c-0.152,4.105-0.22,8.213-0.345,12.319c-0.101,3.303-0.25,6.604-0.347,9.907c-0.24,8.153-0.473,16.308-0.687,24.463
			c-0.049,1.859-0.007,3.723-0.007,5.861c0.778-0.063,1.599-0.096,2.41-0.203c1.001-0.133,1.991-0.36,2.993-0.488
			c3.076-0.395,6.154-0.762,9.232-1.137c1.415-0.172,1.905-0.908,1.913-2.376c0.027-5.998,0.155-11.996,0.321-17.991
			c0.063-2.314,0.328-4.624,0.501-6.946c6.189-0.982,12.374-1.965,18.918-3.004c-0.179,3.001-0.412,5.711-0.487,8.425
			c-0.162,5.878-0.236,11.76-0.366,17.639c-0.022,0.999,0.443,1.351,1.374,1.228c5.133-0.68,10.271-1.334,15.392-2.094
			c0.424-0.063,1.043-0.834,1.062-1.296c0.194-4.848,0.286-9.699,0.402-14.55c0.114-4.794,0.228-9.588,0.334-14.382
			c0.122-5.481,0.27-10.962,0.339-16.443c0.057-4.471-0.029-8.943,0.027-13.413c0.051-3.993,0.212-7.983,0.32-11.975
			c0.021-0.78,0.01-1.663-1.115-1.439c-4.888,0.973-9.753,2.061-14.652,2.977c-1.121,0.21-1.4,0.717-1.422,1.671
			c-0.106,4.622-0.152,9.247-0.353,13.865c-0.173,3.967-0.525,7.927-0.806,12.001C253.539,341.916,247.469,342.958,241.499,343.983z
			 M397.84,303.604c0.867-0.308,1.646-0.683,2.467-0.858c3.728-0.796,7.468-1.532,11.201-2.297c2.967-0.608,5.909-1.384,8.903-1.781
			c1.558-0.207,2.087-0.725,2.042-2.224c-0.155-5.137-0.246-10.275-0.362-15.412c-0.005-0.229,0.06-0.534-0.06-0.668
			c-0.235-0.266-0.614-0.658-0.87-0.615c-3.15,0.528-6.305,1.052-9.424,1.733c-1.854,0.405-3.619,1.225-5.475,1.611
			c-3.945,0.821-7.936,1.419-11.884,2.223c-3.353,0.683-6.671,1.534-10.009,2.295c-1.258,0.287-2.527,0.526-3.789,0.797
			c-3.006,0.645-6.01,1.302-9.018,1.939c-2.735,0.58-5.479,1.126-8.215,1.709c-2.089,0.446-4.154,1.028-6.262,1.351
			c-1.196,0.184-1.73,0.625-1.726,1.828c0.021,4.873,0.027,9.746,0.004,14.619c-0.007,1.373,0.521,1.612,1.807,1.283
			c1.625-0.415,3.321-0.549,4.98-0.844c2.928-0.521,5.863-1.015,8.772-1.63c1.723-0.364,3.4-0.938,5.435-1.514
			c0,0.983,0,1.642,0,2.3c0.002,17.771,0.003,35.544,0.005,53.315c0,1.72-0.032,3.44,0.016,5.159
			c0.033,1.227,0.691,1.679,1.929,1.438c2.367-0.461,4.741-0.908,7.127-1.255c4.165-0.603,8.342-1.125,12.404-1.666
			C397.84,345.299,397.84,324.468,397.84,303.604z M182.592,397.302c6.078,0.405,11.327-1.467,16.195-4.758
			c2.586-1.748,4.726-3.96,7.04-6.003c2.811-2.482,4.356-5.754,6.311-8.714c2.23-3.38,1.851-3.546-2.108-4.591
			c-2.534-0.67-5.035-1.502-7.489-2.425c-2.91-1.095-3.592-0.929-5.096,1.732c-0.098,0.173-0.299,0.289-0.456,0.428
			c-1.659,1.47-3.307,2.953-4.98,4.406c-2.884,2.504-6.27,2.528-9.74,1.824c-1.107-0.226-2.335-0.547-3.176-1.232
			c-1.303-1.063-2.426-2.397-3.435-3.758c-1.301-1.753-2.263-3.752-2.592-5.916c-0.697-4.578,0.691-8.816,2.548-12.899
			c2.156-4.741,6.078-7.902,10.625-9.88c4.561-1.982,8.597-1.14,12.247,2.871c0.75,0.825,1.253,0.924,2.096,0.435
			c1.983-1.15,3.952-2.328,5.966-3.423c2.164-1.176,4.38-2.255,6.559-3.402c1.882-0.991,2.047-1.608,0.887-3.353
			c-0.968-1.454-2.008-2.859-2.972-4.315c-1.338-2.021-3.386-3.13-5.294-4.501c-2.751-1.976-5.716-2.979-8.986-2.968
			c-2.756,0.01-5.524,0.319-8.265,0.666c-3.571,0.452-6.54,2.468-9.556,4.191c-2.117,1.21-3.877,3.029-5.847,4.509
			c-4.719,3.544-7.585,8.521-10.378,13.515c-2.521,4.506-3.509,9.592-4.311,14.577c-0.623,3.874-0.348,7.943,0.803,11.841
			c0.347,1.175,0.221,2.512,0.669,3.631c1.146,2.856,2.091,5.704,4.054,8.323c2.265,3.024,4.874,5.396,8.052,7.058
			C175.257,396.894,178.923,397.696,182.592,397.302z"/>
		<path fill-rule="evenodd" clip-rule="evenodd" fill="#FFFFFF" d="M228.559,177.183c1.542-4.151,4.218-7.239,7.357-9.96
			c1.417-1.228,2.83-2.586,4.486-3.382c3.092-1.486,6.346-2.648,9.565-3.856c1.472-0.553,3.019-0.903,4.539-1.326
			c0.269-0.074,0.565-0.061,0.85-0.065c0.688-0.008,1.377,0.017,2.064-0.007c6.302-0.213,12.349,0.871,18.073,3.571
			c4.415,2.083,8.378,4.713,11.034,8.978c0.604,0.971,1.512,1.755,2.096,2.735c0.583,0.979,0.935,2.095,1.458,3.313
			C269.476,177.183,249.079,177.183,228.559,177.183z"/>
		<path fill-rule="evenodd" clip-rule="evenodd" fill="#4AC7EE" d="M348.446,373.582c-3.069,0.4-6.14,0.8-9.209,1.2
			c-1.337,0.174-2.672,0.465-4.012,0.495c-1.85,0.042-1.723-1.746-2.144-2.816c-0.731-1.862-1.101-3.864-1.681-5.79
			c-0.415-1.379-1.494-1.681-3.833-1.328c-3.275,0.494-6.661,0.576-9.806,1.498c-1.892,0.555-3.721,0.842-5.633,1.021
			c-1.395,0.131-2.772,0.458-4.168,0.543c-1.22,0.075-2,0.462-2.324,1.735c-0.699,2.75-1.397,5.507-2.291,8.196
			c-0.238,0.715-1.098,1.54-1.819,1.715c-1.8,0.438-3.686,0.522-5.535,0.769c-4.122,0.55-8.241,1.118-12.364,1.665
			c-0.98,0.13-1.737,0.1-1.227-1.312c0.817-2.256,1.475-4.569,2.267-6.834c0.569-1.63,1.26-3.218,1.873-4.833
			c1.387-3.653,2.765-7.311,4.134-10.972c0.234-0.626,0.381-1.284,0.614-1.91c1.219-3.275,2.467-6.541,3.679-9.819
			c1.69-4.573,3.365-9.152,5.03-13.734c0.716-1.973,1.162-4.08,2.125-5.92c2.583-4.935,3.776-10.36,5.781-15.493
			c1.101-2.813,2.185-5.639,3.452-8.378c0.272-0.589,1.259-1.037,1.991-1.191c3.894-0.817,7.821-1.471,11.715-2.288
			c1.338-0.281,2.119-0.267,2.707,1.283c1.781,4.692,3.719,9.327,5.707,13.937c1.259,2.919,2.795,5.718,4.057,8.637
			c0.918,2.126,1.509,4.393,2.391,6.537c1.093,2.659,2.381,5.237,3.501,7.886c2.313,5.471,4.567,10.966,6.854,16.448
			c1.923,4.61,3.834,9.225,5.802,13.814c0.378,0.881,1.031,1.638,1.489,2.488c0.447,0.83,0.096,1.25-0.803,1.391
			c-2.056,0.324-4.105,0.688-6.155,1.05c-0.715,0.126-1.424,0.294-2.136,0.442C348.465,373.67,348.455,373.626,348.446,373.582z
			 M318.364,328.436c-2.411,7.987-4.733,15.678-7.099,23.512c4.909-0.95,9.479-1.835,14.153-2.74
			c-0.026-0.248,0.005-0.654-0.118-1.007c-0.74-2.118-1.545-4.213-2.269-6.336c-0.45-1.321-0.775-2.685-1.189-4.019
			c-0.855-2.755-1.712-5.51-2.621-8.246C319.074,329.159,318.65,328.813,318.364,328.436z"/>
		<path fill-rule="evenodd" clip-rule="evenodd" fill="#4AC7EE" d="M241.499,343.983c5.971-1.025,12.041-2.067,18.104-3.107
			c0.281-4.074,0.633-8.034,0.806-12.001c0.201-4.618,0.247-9.243,0.353-13.865c0.022-0.954,0.301-1.461,1.422-1.671
			c4.898-0.916,9.764-2.004,14.652-2.977c1.125-0.224,1.136,0.659,1.115,1.439c-0.108,3.991-0.269,7.981-0.32,11.975
			c-0.056,4.47,0.029,8.942-0.027,13.413c-0.069,5.481-0.218,10.962-0.339,16.443c-0.106,4.794-0.22,9.588-0.334,14.382
			c-0.116,4.851-0.208,9.702-0.402,14.55c-0.019,0.462-0.637,1.233-1.062,1.296c-5.122,0.76-10.259,1.414-15.392,2.094
			c-0.93,0.123-1.396-0.229-1.374-1.228c0.129-5.879,0.204-11.761,0.366-17.639c0.075-2.714,0.308-5.424,0.487-8.425
			c-6.545,1.039-12.729,2.021-18.918,3.004c-0.174,2.322-0.438,4.632-0.501,6.946c-0.166,5.995-0.293,11.993-0.321,17.991
			c-0.007,1.468-0.498,2.204-1.913,2.376c-3.078,0.375-6.157,0.742-9.232,1.137c-1.002,0.128-1.992,0.355-2.993,0.488
			c-0.811,0.107-1.632,0.141-2.41,0.203c0-2.139-0.042-4.002,0.007-5.861c0.214-8.155,0.446-16.31,0.687-24.463
			c0.097-3.303,0.246-6.604,0.347-9.907c0.125-4.106,0.193-8.214,0.345-12.319c0.196-5.289,0.473-10.575,0.661-15.864
			c0.036-1.004,0.345-1.33,1.378-1.468c2.572-0.343,5.133-0.818,7.666-1.384c1.748-0.39,3.431-1.058,5.163-1.531
			c1.935-0.528,2.657,0.245,2.162,2.23c-0.055,0.219-0.172,0.434-0.173,0.651C241.497,328.545,241.499,336.197,241.499,343.983z"/>
		<path fill-rule="evenodd" clip-rule="evenodd" fill="#4AC7EE" d="M397.84,303.604c0,20.864,0,41.695,0,62.839
			c-4.063,0.541-8.239,1.063-12.404,1.666c-2.386,0.347-4.76,0.794-7.127,1.255c-1.237,0.24-1.896-0.212-1.929-1.438
			c-0.048-1.719-0.016-3.439-0.016-5.159c-0.002-17.771-0.003-35.544-0.005-53.315c0-0.658,0-1.316,0-2.3
			c-2.034,0.575-3.712,1.149-5.435,1.514c-2.909,0.615-5.845,1.109-8.772,1.63c-1.659,0.295-3.355,0.429-4.98,0.844
			c-1.285,0.329-1.813,0.09-1.807-1.283c0.023-4.873,0.017-9.746-0.004-14.619c-0.005-1.204,0.529-1.645,1.726-1.828
			c2.107-0.323,4.173-0.905,6.262-1.351c2.735-0.583,5.479-1.13,8.215-1.709c3.008-0.637,6.012-1.295,9.018-1.939
			c1.262-0.271,2.531-0.51,3.789-0.797c3.338-0.762,6.656-1.613,10.009-2.295c3.948-0.804,7.938-1.402,11.884-2.223
			c1.855-0.386,3.62-1.207,5.475-1.611c3.119-0.681,6.273-1.205,9.424-1.733c0.256-0.043,0.635,0.349,0.87,0.615
			c0.119,0.135,0.055,0.44,0.06,0.668c0.116,5.137,0.207,10.275,0.362,15.412c0.045,1.499-0.484,2.017-2.042,2.224
			c-2.994,0.397-5.937,1.173-8.903,1.781c-3.733,0.766-7.474,1.501-11.201,2.297C399.486,302.921,398.707,303.296,397.84,303.604z"
			/>
		<path fill-rule="evenodd" clip-rule="evenodd" fill="#4AC7EE" d="M182.592,397.302c-3.668,0.395-7.335-0.408-10.629-2.131
			c-3.178-1.662-5.787-4.033-8.052-7.058c-1.963-2.619-2.909-5.467-4.054-8.323c-0.449-1.119-0.323-2.456-0.669-3.631
			c-1.15-3.897-1.426-7.967-0.803-11.841c0.802-4.985,1.79-10.071,4.311-14.577c2.793-4.993,5.66-9.971,10.378-13.515
			c1.97-1.479,3.73-3.299,5.847-4.509c3.016-1.724,5.985-3.739,9.556-4.191c2.741-0.347,5.508-0.656,8.265-0.666
			c3.27-0.012,6.235,0.992,8.986,2.968c1.908,1.371,3.956,2.479,5.294,4.501c0.964,1.456,2.004,2.861,2.972,4.315
			c1.161,1.744,0.996,2.361-0.887,3.353c-2.179,1.147-4.395,2.227-6.559,3.402c-2.014,1.095-3.983,2.272-5.966,3.423
			c-0.843,0.489-1.346,0.391-2.096-0.435c-3.65-4.011-7.686-4.854-12.247-2.871c-4.547,1.978-8.469,5.139-10.625,9.88
			c-1.857,4.083-3.246,8.321-2.548,12.899c0.329,2.164,1.291,4.163,2.592,5.916c1.009,1.36,2.132,2.695,3.435,3.758
			c0.84,0.686,2.069,1.007,3.176,1.232c3.47,0.704,6.856,0.68,9.74-1.824c1.674-1.453,3.321-2.937,4.98-4.406
			c0.156-0.139,0.357-0.255,0.456-0.428c1.503-2.661,2.186-2.827,5.096-1.732c2.454,0.923,4.955,1.755,7.489,2.425
			c3.958,1.045,4.338,1.211,2.108,4.591c-1.954,2.96-3.5,6.231-6.311,8.714c-2.314,2.043-4.453,4.255-7.04,6.003
			C193.918,395.835,188.67,397.707,182.592,397.302z"/>
		<path fill-rule="evenodd" clip-rule="evenodd" fill="#FFFFFF" d="M318.364,328.436c0.286,0.377,0.711,0.724,0.857,1.164
			c0.909,2.736,1.766,5.491,2.621,8.246c0.414,1.334,0.739,2.697,1.189,4.019c0.724,2.123,1.528,4.218,2.269,6.336
			c0.123,0.353,0.092,0.759,0.118,1.007c-4.674,0.905-9.244,1.79-14.153,2.74C313.63,344.113,315.952,336.423,318.364,328.436z"/>
	</g>
</g>
</svg>
