<?xml version="1.0" encoding="utf-8"?>
<!-- Generator: Adobe Illustrator 16.0.0, SVG Export Plug-In . SVG Version: 6.00 Build 0)  -->
<!DOCTYPE svg PUBLIC "-//W3C//DTD SVG 1.1//EN" "http://www.w3.org/Graphics/SVG/1.1/DTD/svg11.dtd">
<svg version="1.1" id="Layer_1" xmlns="http://www.w3.org/2000/svg" xmlns:xlink="http://www.w3.org/1999/xlink" x="0px" y="0px"
	 width="217.5px" height="154.5px" viewBox="0 0 217.5 154.5" enable-background="new 0 0 217.5 154.5" xml:space="preserve">
<g transform="matrix(0.344013, 0, 0, 0.344013, 0, 0)">
</g>
<path fill="#FFFFFF" d="M73.18,129.565c-0.923-0.497-1.765-0.955-2.611-1.405c-0.518-0.273-1.035-0.547-1.564-0.797
	c-0.875-0.416-1.758-0.815-2.641-1.217c-1.118-0.51-2.255-0.987-3.356-1.531c-1.103-0.543-2.166-1.164-3.259-1.728
	c-1.178-0.608-2.38-1.167-3.549-1.788c-2.292-1.219-4.604-2.402-6.834-3.729c-1-0.595-1.825-1.486-2.719-2.258
	c-0.507-0.438-1.043-0.859-1.471-1.368c-0.762-0.907-1.412-1.906-2.18-2.808c-0.845-0.991-1.313-2.164-1.817-3.328
	c-0.402-0.928-0.869-1.833-1.202-2.785c-0.259-0.738-0.356-1.533-0.523-2.303c-0.158-0.732-0.331-1.462-0.466-2.2
	c-0.105-0.583-0.217-1.173-0.232-1.764c-0.035-1.261-0.068-2.528,0.009-3.785c0.056-0.903,0.296-1.794,0.441-2.693
	c0.093-0.573,0.128-1.159,0.254-1.724c0.324-1.455,0.615-2.923,1.053-4.345c0.358-1.162,0.903-2.267,1.373-3.394
	c0.244-0.583,0.464-1.181,0.763-1.735c0.558-1.028,1.135-2.047,1.757-3.035c0.519-0.82,1.074-1.622,1.683-2.376
	c1.092-1.355,2.216-2.68,3.509-3.865c0.848-0.778,1.676-1.548,2.672-2.142c0.674-0.401,1.311-0.882,1.904-1.394
	c1.231-1.061,2.727-1.578,4.206-2.144c0.683-0.261,1.327-0.629,2.02-0.858c1.039-0.343,2.104-0.607,3.158-0.903
	c0.818-0.229,1.635-0.464,2.455-0.682c0.817-0.217,1.639-0.424,2.462-0.619c1.049-0.249,2.108-0.455,3.151-0.729
	c0.876-0.23,1.726-0.558,2.601-0.792c0.794-0.213,1.606-0.357,2.449-0.541c-0.876-0.654-1.772-1.242-2.571-1.941
	c-1.234-1.081-2.434-2.209-3.591-3.374c-0.747-0.752-1.447-1.565-2.065-2.426c-0.575-0.803-0.966-1.739-1.525-2.555
	c-0.858-1.25-1.311-2.676-1.917-4.038c-0.907-2.037-1.404-4.169-1.646-6.372c-0.085-0.772-0.036-1.585-0.267-2.31
	c-0.402-1.272-0.16-2.545-0.181-3.813c-0.015-0.842,0.198-1.693,0.36-2.53c0.282-1.456,0.554-2.917,0.926-4.35
	c0.267-1.024,0.67-2.015,1.052-3.005c0.338-0.877,0.714-1.741,1.106-2.595c0.124-0.268,0.402-0.463,0.537-0.729
	c1.09-2.151,2.574-4.013,4.244-5.725c1.036-1.063,2.148-2.056,3.271-3.031c0.473-0.41,1.053-0.697,1.592-1.029
	c1.262-0.776,2.484-1.63,3.806-2.29c1.127-0.563,2.368-0.897,3.559-1.334c0.527-0.193,1.044-0.428,1.583-0.577
	c0.595-0.163,1.203-0.304,1.813-0.358c2.057-0.185,4.12-0.481,6.175-0.44c1.925,0.038,3.874,0.313,5.755,0.74
	c1.831,0.417,3.606,1.109,5.369,1.779c0.866,0.329,1.669,0.846,2.46,1.343c1.189,0.748,2.381,1.505,3.5,2.351
	c0.87,0.658,1.656,1.434,2.438,2.201c0.824,0.808,1.608,1.656,2.388,2.508c0.271,0.297,0.47,0.659,0.703,0.991
	c0.91,1.297,1.84,2.582,2.455,4.058c0.601,1.445,1.229,2.879,1.805,4.333c0.806,2.033,1.211,4.153,1.31,6.338
	c0.042,0.953,0.235,1.904,0.21,2.852c-0.041,1.478-0.208,2.952-0.329,4.427c-0.028,0.348-0.076,0.694-0.127,1.039
	c-0.137,0.918-0.718,1.182-1.603,0.795c-0.206-0.09-0.505,0.042-0.762,0.052c-0.277,0.011-0.556,0.002-0.833-0.002
	c-0.271-0.005-0.542-0.02-0.813-0.023c-0.323-0.004-0.647-0.004-0.973,0c-0.23,0.003-0.463,0.021-0.694,0.025
	c-0.315,0.004-0.635,0.006-0.95,0.001c-0.271-0.004-0.542-0.025-0.813-0.029c-0.323-0.004-0.646,0-0.972,0.005
	c-0.231,0.003-0.463,0.008-0.694,0.021c-0.271,0.015-0.539,0.047-0.81,0.057c-0.336,0.012-0.672,0.014-1.009,0.01
	c-0.221-0.002-0.439-0.03-0.661-0.031c-0.323-0.002-0.647,0.009-0.973,0.014c-0.263,0.004-0.524,0.009-0.788,0.011
	c-0.336,0.003-0.672,0.008-1.008,0.005c-0.221-0.002-0.441-0.025-0.663-0.027c-0.324-0.002-0.646,0.011-0.972,0.007
	c-0.271-0.003-0.542-0.026-0.813-0.031c-0.276-0.005-0.555,0-0.833,0.004c-0.271,0.005-0.542,0.02-0.813,0.023
	c-0.324,0.004-0.648,0.005-0.972,0.001c-0.271-0.003-0.542-0.019-0.813-0.024c-0.238-0.004-0.477,0-0.715-0.003
	c-0.316-0.005-0.634-0.017-0.951-0.023c-0.271-0.005-0.542-0.004-0.813-0.008c-0.284-0.004-0.568-0.014-0.854-0.019
	c-0.263-0.004-0.526-0.005-0.789-0.008c-0.336-0.003-0.672-0.011-1.007-0.008c-0.261,0.003-0.521,0.026-0.782,0.029
	c-0.283,0.003-0.566-0.006-0.852-0.01c-0.264-0.004-0.525-0.011-0.788-0.013c-0.336-0.003-0.672-0.006-1.008-0.002
	c-0.223,0.002-0.442,0.022-0.664,0.024c-0.324,0.002-0.648-0.001-0.974-0.005c-0.262-0.004-0.522-0.016-0.786-0.018
	c-0.335-0.003-0.672-0.01-1.007,0.002c-0.229,0.009-0.457,0.06-0.686,0.071c-0.271,0.013-0.543,0.007-0.813,0.002
	c-0.316-0.006-0.634-0.024-0.95-0.029c-0.278-0.004-0.557,0.001-0.833,0.005c-0.278,0.004-0.557,0.014-0.833,0.02
	c-0.271,0.005-0.542,0.006-0.813,0.009c-0.324,0.005-0.648,0.004-0.973,0.018c-0.189,0.008-0.45,0.131-0.557,0.048
	c-0.452-0.361-0.854-0.254-1.275,0.021c-0.06,0.038-0.153,0.021-0.219,0.028c0.429,1.593,1.425,2.863,2.336,4.175
	c0.199,0.287,0.551,0.462,0.799,0.721c0.826,0.862,1.853,1.407,2.903,1.933c1.032,0.516,2.122,0.83,3.251,1.013
	c0.514,0.083,1.043,0.056,1.563,0.1c1.663,0.142,3.307-0.009,4.841-0.647c1.11-0.461,2.241-0.956,3.073-1.912
	c0.432-0.496,0.917-0.944,1.378-1.414c0.056-0.057,0.146-0.105,0.16-0.17c0.209-0.98,0.952-0.871,1.681-0.869
	c5.464,0.01,10.928,0.005,16.393,0.005c0.216,0,0.432,0,0.729,0c-0.329,0.95-0.596,1.874-0.967,2.752
	c-0.361,0.856-0.828,1.668-1.262,2.523c1.285-0.303,2.55-0.592,3.81-0.9c0.638-0.156,0.948-0.687,1.26-1.195
	c0.821-1.339,1.633-2.685,2.446-4.028c0.658-1.087,1.226-2.243,1.997-3.242c0.73-0.947,1.252-2,1.878-3
	c0.392-0.625,0.84-1.215,1.212-1.852c0.093-0.161,0.063-0.48-0.037-0.653c-0.748-1.284-1.516-2.557-2.304-3.817
	c-0.423-0.676-0.912-1.311-1.343-1.982c-0.27-0.419-0.469-0.882-0.727-1.308c-0.601-0.988-1.213-1.969-1.831-2.946
	c-0.261-0.412-0.563-0.799-0.821-1.211c-0.366-0.581-0.695-1.185-1.068-1.76c-0.794-1.223-1.617-2.426-2.406-3.65
	c-0.354-0.547-0.651-1.131-0.982-1.694c-0.639-1.086-1.266-2.18-1.931-3.25c-0.571-0.918-1.208-1.797-1.785-2.712
	c-0.616-0.975-1.188-1.98-1.804-2.956c-0.289-0.458-0.638-0.878-1.068-1.462c0.408,0,0.634,0,0.857,0
	c6.214,0,12.427,0.004,18.64-0.007c0.52,0,0.844,0.065,1.146,0.616c0.611,1.109,1.427,2.103,2.109,3.176
	c0.544,0.857,0.997,1.771,1.521,2.641c0.468,0.776,0.985,1.523,1.466,2.293c0.634,1.015,1.244,2.045,1.881,3.058
	c0.248,0.395,0.539,0.763,0.785,1.107c0.648-0.941,1.277-1.805,1.854-2.702c0.485-0.757,0.905-1.556,1.364-2.331
	c0.287-0.483,0.593-0.955,0.886-1.433c0.33-0.535,0.655-1.074,0.989-1.606c0.396-0.635,0.808-1.262,1.201-1.899
	c0.525-0.855,1.031-1.724,1.572-2.57c0.1-0.155,0.316-0.25,0.496-0.333c0.098-0.045,0.232-0.009,0.352-0.009
	c20.355,0,40.711,0,61.066,0c0.195,0,0.391,0,0.576,0c0,5.799,0,11.564,0,17.364c-5.939,0-11.836,0-17.767,0
	c0,13.561,0,27.047,0,40.58c-5.877,0-11.721,0-17.643,0c0-0.241,0-0.489,0-0.738c0-13.058,0-26.115,0-39.172
	c0-0.73,0-0.693-0.729-0.686c-1.426,0.013-2.852-0.025-4.276-0.032c-1.355-0.007-2.711-0.008-4.064,0.002
	c-1.293,0.011-2.588,0.059-3.881,0.058c-1.426-0.001-2.854-0.052-4.279-0.048c-0.161,0-0.368,0.186-0.475,0.341
	c-0.522,0.77-1.035,1.55-1.525,2.341c-0.354,0.571-0.663,1.169-1.004,1.749c-0.604,1.031-1.106,2.149-1.86,3.058
	c-0.793,0.957-1.263,2.076-1.935,3.085c-0.08,0.121-0.176,0.232-0.268,0.346c-0.555,0.696-0.566,1.005-0.078,1.755
	c0.553,0.845,1.113,1.685,1.65,2.539c0.596,0.949,1.149,1.923,1.754,2.868c0.68,1.067,1.405,2.105,2.086,3.171
	c0.586,0.917,1.133,1.858,1.707,2.782c0.535,0.859,1.094,1.705,1.627,2.565c0.684,1.104,1.301,2.254,2.043,3.317
	c0.649,0.931,1.254,1.92,2.313,2.514c0.345,0.192,0.506,0.683,0.813,0.969c1.076,1,1.848,2.23,2.713,3.396
	c0.699,0.941,1.166,1.998,1.789,2.967c0.723,1.127,1.096,2.377,1.514,3.622c0.224,0.665,0.543,1.301,0.717,1.977
	c0.242,0.948,0.423,1.916,0.564,2.885c0.188,1.284,0.318,2.578,0.465,3.869c0.025,0.214,0.004,0.433,0.021,0.649
	c0.151,1.98,0.301,3.962,0.469,5.941c0.102,1.202,0.262,2.4,0.35,3.604c0.107,1.464,0.092,2.939,0.26,4.395
	c0.232,2.006,0.438,4.013,0.32,6.029c-0.078,1.353-0.168,2.731-0.5,4.035c-0.502,1.97-1.137,3.918-1.875,5.813
	c-0.529,1.356-1.285,2.631-2.014,3.9c-0.412,0.72-0.971,1.358-1.476,2.026c-1.26,1.669-2.633,3.231-4.225,4.597
	c-0.93,0.798-1.803,1.66-2.734,2.455c-0.393,0.334-0.875,0.563-1.309,0.852c-0.861,0.576-1.701,1.188-2.578,1.738
	c-1.373,0.861-2.783,1.648-4.33,2.177c-0.783,0.267-1.502,0.723-2.283,0.991c-1.215,0.418-2.452,0.77-3.69,1.111
	c-1.039,0.287-2.09,0.541-3.146,0.768c-0.662,0.142-1.338,0.233-2.012,0.295c-0.779,0.072-1.563,0.092-2.344,0.127
	c-1.78,0.082-3.561,0.153-5.34,0.24c-1.426,0.069-2.85,0.162-4.274,0.231c-1.076,0.052-2.177-0.038-3.227,0.153
	c-1.635,0.295-3.273,0.24-4.911,0.33c-0.874,0.049-1.743,0.172-2.616,0.212c-0.919,0.042-1.454,0.704-2.083,1.212
	c-0.507,0.409-0.98,0.859-1.471,1.288c-0.043,0.038-0.107,0.05-0.148,0.09c-0.921,0.875-1.828,1.766-2.763,2.626
	c-0.668,0.615-1.371,1.191-2.063,1.783c-1.143,0.978-2.284,1.956-3.432,2.931c-0.803,0.683-1.625,1.343-2.415,2.04
	c-0.434,0.383-0.809,0.832-1.229,1.232c-0.526,0.501-1.059,0.998-1.613,1.466c-0.396,0.331-0.855,0.587-1.252,0.917
	c-0.671,0.56-1.323,1.143-1.969,1.73c-1.05,0.955-2.088,1.924-3.131,2.885c-0.278,0.258-0.559,0.518-0.846,0.768
	c-0.328,0.286-0.635,0.299-1.052,0.078c-0.74-0.391-1.536-0.677-2.31-1.008c-1.578-0.679-3.167-1.341-4.736-2.042
	c-1.138-0.508-2.241-1.09-3.378-1.599c-1.321-0.593-2.665-1.133-3.991-1.715c-0.368-0.161-0.694-0.418-1.063-0.58
	c-1.108-0.485-2.233-0.937-3.346-1.42c-0.505-0.221-0.976-0.527-1.49-0.722c-0.433-0.163-0.516-0.44-0.507-0.848
	c0.048-2.297,0.088-4.593,0.118-6.89C73.192,131.721,73.18,130.578,73.18,129.565z M80.868,130.879
	c0.379-0.415,0.704-0.789,1.05-1.146c1.185-1.224,2.382-2.435,3.563-3.66c1.396-1.448,2.78-2.911,4.178-4.36
	c0.97-1.007,1.95-2.003,2.931-3c1.328-1.351,2.665-2.691,3.988-4.047c0.802-0.82,1.587-1.656,2.375-2.489
	c0.139-0.146,0.306-0.299,0.367-0.479c0.172-0.49,0.564-0.626,0.998-0.66c1.267-0.098,2.532-0.175,3.801-0.242
	c1.66-0.088,3.322-0.159,4.983-0.238c1.643-0.079,3.284-0.158,4.926-0.238c1.604-0.078,3.204-0.187,4.809-0.228
	c1.662-0.042,3.318-0.035,4.97-0.342c0.877-0.163,1.795-0.107,2.694-0.142c1.097-0.043,2.195-0.06,3.292-0.125
	c0.734-0.043,1.469-0.135,2.2-0.231c0.784-0.103,1.569-0.211,2.347-0.36c0.994-0.19,1.981-0.409,2.967-0.644
	c0.43-0.102,0.84-0.28,1.264-0.414c0.682-0.215,1.376-0.39,2.045-0.639c0.948-0.353,1.881-0.752,2.815-1.143
	c0.438-0.184,0.875-0.377,1.297-0.597c0.945-0.492,1.885-0.995,2.818-1.507c0.797-0.438,1.629-0.835,2.365-1.363
	c0.991-0.712,1.911-1.527,2.854-2.309c0.855-0.71,1.726-1.409,2.541-2.163c0.535-0.494,0.99-1.076,1.479-1.62
	c0.705-0.782,1.438-1.541,2.102-2.357c0.623-0.771,1.221-1.573,1.738-2.417c0.719-1.168,1.438-2.35,2.002-3.597
	c0.678-1.502,1.315-3.044,1.738-4.631c0.409-1.542,0.608-3.156,0.743-4.752c0.119-1.41,0.152-2.854-0.018-4.254
	c-0.182-1.482-0.451-2.963-1.002-4.393c-0.605-1.578-1.23-3.137-2.152-4.553c-0.535-0.823-1.16-1.589-1.764-2.366
	c-0.391-0.503-0.783-1.012-1.234-1.46c-0.434-0.434-0.946-0.791-1.416-1.191c-0.176-0.15-0.305-0.362-0.491-0.492
	c-0.929-0.646-1.841-1.328-2.816-1.896c-1.119-0.65-2.283-1.229-3.459-1.771c-0.766-0.352-1.59-0.572-2.379-0.873
	c-0.986-0.375-2.06-0.426-3.039-0.884c-0.535-0.25-1.213-0.211-1.828-0.272c-1.686-0.165-3.367-0.388-5.056-0.445
	c-1.283-0.043-2.572,0.176-3.86,0.199c-1.846,0.033-3.6,0.516-5.37,0.948c-1.271,0.311-2.56,0.562-3.838,0.848
	c-0.713,0.16-1.429,0.313-2.13,0.517c-0.774,0.227-1.524,0.542-2.301,0.763c-1.61,0.456-3.229,0.885-4.849,1.304
	c-1.003,0.26-2.015,0.486-3.023,0.718c-0.938,0.215-1.885,0.392-2.814,0.636c-0.688,0.181-1.348,0.482-2.037,0.659
	c-1.15,0.293-2.323,0.499-3.474,0.797c-1.089,0.283-2.152,0.66-3.238,0.955c-1.018,0.275-2.054,0.485-3.076,0.743
	c-1.502,0.379-2.999,0.775-4.499,1.163c-1.095,0.283-2.189,0.563-3.284,0.845c-1.208,0.313-2.416,0.629-3.625,0.94
	c-1.093,0.281-2.186,0.559-3.277,0.837c-1.564,0.398-3.128,0.799-4.692,1.194c-0.794,0.2-1.589,0.396-2.386,0.583
	c-0.448,0.106-0.91,0.159-1.35,0.291c-0.787,0.236-1.551,0.558-2.345,0.762c-1.146,0.296-2.323,0.474-3.467,0.786
	c-1.129,0.308-2.295,0.472-3.382,0.973c-0.591,0.273-1.3,0.28-1.944,0.45c-1.354,0.356-2.747,0.625-3.903,1.509
	c-0.239,0.184-0.542,0.283-0.813,0.427c-0.714,0.379-1.482,0.685-2.126,1.161c-0.873,0.648-1.65,1.425-2.469,2.15
	c-0.49,0.436-1.024,0.835-1.452,1.326c-0.658,0.754-1.267,1.556-1.851,2.371c-0.603,0.841-1.206,1.69-1.704,2.594
	c-0.533,0.968-0.953,2-1.401,3.013c-0.305,0.688-0.628,1.376-0.844,2.094c-0.32,1.067-0.637,2.148-0.8,3.247
	c-0.211,1.42-0.639,2.821-0.513,4.281c0.073,0.854-0.079,1.7,0.197,2.573c0.335,1.056,0.456,2.186,0.615,3.292
	c0.243,1.688,1.041,3.162,1.895,4.568c0.856,1.412,1.938,2.694,3.29,3.703c1.067,0.795,2.183,1.508,3.42,2.01
	c1.521,0.617,3.122,0.928,4.745,0.903c2.522-0.04,5.043-0.217,7.564-0.338c1.563-0.076,3.125-0.165,4.688-0.233
	c2.036-0.088,4.073-0.158,6.109-0.243c0.329-0.014,0.655-0.093,0.982-0.098c0.39-0.006,0.807-0.036,1.15,0.099
	c0.105,0.041,0.015,0.587,0.014,0.901c0,0.02-0.001,0.039-0.001,0.059c-0.04,1.984-0.091,3.969-0.115,5.953
	c-0.019,1.38-0.001,2.761-0.001,4.141c0,0.79-0.003,1.578-0.003,2.367C80.868,127.332,80.868,129.036,80.868,130.879z
	 M81.628,27.953c7.06,0,14.076,0,21.164,0c-0.181-0.419-0.301-0.803-0.502-1.14c-0.2-0.337-0.514-0.607-0.722-0.941
	c-0.914-1.467-2.276-2.372-3.796-3.088c-1.969-0.929-4.049-1.302-6.217-1.229c-0.236,0.008-0.474,0-0.711,0.002
	c-0.098,0.001-0.199-0.003-0.292,0.022c-0.522,0.145-1.055,0.266-1.562,0.456c-1.107,0.416-2.228,0.815-3.29,1.327
	c-0.57,0.273-1.058,0.741-1.544,1.163C83.079,25.463,82.158,26.525,81.628,27.953z"/>
<path fill="#FFFFFF" d="M43.098,6.556c5.738,0,11.372,0,17.034,0c0,19.31,0,38.59,0,57.961c-0.203,0-0.41,0-0.617,0
	c-5.188,0-10.374-0.008-15.561,0.011c-0.546,0.001-0.764-0.209-0.98-0.689c-0.271-0.598-0.727-1.109-1.081-1.671
	c-0.725-1.146-1.438-2.299-2.151-3.454c-0.688-1.115-1.363-2.239-2.054-3.353c-0.63-1.018-1.263-2.032-1.909-3.039
	c-0.979-1.523-1.999-3.022-2.95-4.563c-0.91-1.472-1.728-3.001-2.639-4.472c-0.771-1.244-1.634-2.431-2.426-3.663
	c-0.473-0.736-0.889-1.509-1.431-2.25c0,9.028,0,18.055,0,27.112c-5.708,0-11.341,0-17.019,0c0-19.294,0-38.589,0-57.933
	c0.185-0.009,0.373-0.026,0.563-0.026c5.601-0.001,11.202,0.004,16.803-0.011c0.483-0.001,0.682,0.17,0.908,0.602
	c0.511,0.976,1.147,1.886,1.731,2.824c0.696,1.116,1.382,2.24,2.089,3.349c0.89,1.394,1.815,2.765,2.691,4.167
	c1.004,1.605,1.955,3.243,2.957,4.849c0.965,1.545,1.977,3.061,2.947,4.602c0.848,1.343,1.665,2.705,2.507,4.052
	c0.146,0.234,0.348,0.433,0.585,0.723C43.098,23.275,43.098,14.937,43.098,6.556z"/>
<path fill="#FFFFFF" d="M122.871,95.517c-1.058,0.138-2.112,0.275-3.168,0.413c-0.46,0.06-0.92,0.16-1.382,0.17
	c-0.636,0.015-0.593-0.601-0.736-0.969c-0.252-0.641-0.379-1.329-0.578-1.992c-0.144-0.475-0.514-0.578-1.318-0.457
	c-1.127,0.17-2.292,0.198-3.374,0.516c-0.649,0.191-1.279,0.29-1.938,0.351c-0.48,0.045-0.954,0.158-1.435,0.187
	c-0.42,0.025-0.688,0.159-0.8,0.597c-0.24,0.946-0.479,1.895-0.788,2.819c-0.082,0.246-0.378,0.53-0.626,0.59
	c-0.619,0.15-1.268,0.179-1.903,0.264c-1.418,0.189-2.836,0.385-4.254,0.573c-0.337,0.044-0.598,0.034-0.422-0.452
	c0.28-0.776,0.508-1.572,0.779-2.351c0.196-0.561,0.434-1.107,0.646-1.663c0.478-1.256,0.95-2.515,1.422-3.774
	c0.081-0.215,0.131-0.442,0.212-0.657c0.419-1.126,0.849-2.25,1.266-3.377c0.581-1.573,1.157-3.148,1.729-4.725
	c0.247-0.679,0.399-1.403,0.73-2.037c0.89-1.697,1.299-3.563,1.989-5.33c0.378-0.968,0.751-1.94,1.188-2.882
	c0.094-0.202,0.434-0.356,0.686-0.41c1.34-0.281,2.689-0.506,4.03-0.787c0.46-0.097,0.729-0.092,0.931,0.441
	c0.613,1.614,1.279,3.208,1.964,4.794c0.433,1.004,0.961,1.967,1.396,2.972c0.314,0.731,0.519,1.511,0.821,2.249
	c0.376,0.915,0.819,1.802,1.204,2.713c0.796,1.882,1.571,3.772,2.358,5.658c0.661,1.586,1.318,3.174,1.996,4.752
	c0.13,0.303,0.354,0.563,0.512,0.856c0.154,0.286,0.033,0.43-0.276,0.479c-0.707,0.111-1.412,0.236-2.116,0.361
	c-0.246,0.043-0.489,0.102-0.734,0.152C122.877,95.547,122.874,95.532,122.871,95.517z M112.522,79.986
	c-0.83,2.748-1.629,5.394-2.441,8.088c1.688-0.327,3.261-0.631,4.869-0.943c-0.011-0.085,0.001-0.225-0.041-0.346
	c-0.256-0.729-0.531-1.449-0.78-2.18c-0.155-0.455-0.268-0.923-0.409-1.382c-0.294-0.948-0.589-1.896-0.901-2.837
	C112.766,80.235,112.62,80.116,112.522,79.986z"/>
<path fill="#FFFFFF" d="M86.079,85.334c2.055-0.353,4.143-0.711,6.229-1.069c0.097-1.401,0.218-2.764,0.277-4.128
	c0.068-1.588,0.085-3.18,0.121-4.77c0.008-0.328,0.104-0.503,0.488-0.575c1.687-0.315,3.359-0.689,5.041-1.024
	c0.388-0.077,0.392,0.227,0.384,0.495c-0.037,1.373-0.093,2.746-0.109,4.12c-0.021,1.538,0.01,3.076-0.01,4.614
	c-0.023,1.885-0.075,3.771-0.116,5.656c-0.037,1.649-0.076,3.298-0.115,4.948c-0.04,1.669-0.071,3.338-0.139,5.005
	c-0.006,0.159-0.219,0.424-0.365,0.446c-1.762,0.262-3.529,0.486-5.295,0.721c-0.319,0.042-0.48-0.079-0.473-0.423
	c0.045-2.022,0.069-4.046,0.126-6.068c0.025-0.934,0.105-1.866,0.168-2.898c-2.252,0.357-4.379,0.695-6.51,1.034
	c-0.06,0.799-0.149,1.593-0.172,2.389c-0.058,2.063-0.101,4.126-0.109,6.189c-0.003,0.505-0.172,0.758-0.658,0.817
	c-1.059,0.129-2.118,0.255-3.176,0.391c-0.346,0.044-0.687,0.122-1.03,0.168c-0.278,0.037-0.561,0.048-0.829,0.07
	c0-0.736-0.014-1.377,0.003-2.017c0.073-2.805,0.153-5.611,0.236-8.416c0.033-1.136,0.085-2.272,0.119-3.408
	c0.043-1.412,0.065-2.826,0.119-4.238c0.066-1.819,0.161-3.638,0.228-5.458c0.012-0.345,0.118-0.458,0.474-0.505
	c0.886-0.118,1.767-0.281,2.639-0.476c0.601-0.134,1.18-0.364,1.774-0.527c0.666-0.182,0.914,0.084,0.744,0.768
	c-0.019,0.075-0.06,0.149-0.06,0.224C86.079,80.024,86.079,82.656,86.079,85.334z"/>
<path fill="#FFFFFF" d="M139.863,71.444c0,7.177,0,14.343,0,21.617c-1.397,0.186-2.834,0.366-4.267,0.573
	c-0.82,0.12-1.638,0.273-2.452,0.432c-0.425,0.083-0.651-0.073-0.663-0.495c-0.017-0.591-0.006-1.183-0.006-1.775
	c0-6.113-0.001-12.228-0.002-18.341c0-0.227,0-0.453,0-0.792c-0.699,0.198-1.276,0.396-1.869,0.521
	c-1.001,0.211-2.011,0.381-3.018,0.561c-0.571,0.101-1.154,0.147-1.714,0.29c-0.441,0.113-0.623,0.031-0.621-0.441
	c0.008-1.676,0.006-3.353-0.001-5.029c-0.002-0.415,0.182-0.566,0.594-0.629c0.725-0.111,1.436-0.312,2.153-0.465
	c0.94-0.201,1.886-0.389,2.825-0.588c1.035-0.219,2.068-0.446,3.104-0.667c0.435-0.093,0.871-0.176,1.304-0.274
	c1.148-0.262,2.29-0.555,3.443-0.79c1.357-0.276,2.73-0.482,4.088-0.765c0.639-0.133,1.244-0.415,1.883-0.554
	c1.072-0.234,2.158-0.415,3.242-0.596c0.088-0.015,0.219,0.12,0.299,0.211c0.041,0.046,0.021,0.151,0.021,0.229
	c0.039,1.767,0.069,3.535,0.125,5.302c0.016,0.516-0.168,0.694-0.703,0.765c-1.029,0.137-2.043,0.404-3.063,0.613
	c-1.285,0.264-2.571,0.517-3.854,0.79C140.429,71.209,140.161,71.338,139.863,71.444z"/>
<path fill="#FFFFFF" d="M65.814,103.677c-1.262,0.136-2.522-0.141-3.655-0.733c-1.094-0.572-1.991-1.387-2.771-2.428
	c-0.676-0.901-1.001-1.881-1.396-2.863c-0.154-0.385-0.11-0.845-0.229-1.25c-0.396-1.34-0.491-2.74-0.276-4.073
	c0.275-1.715,0.615-3.464,1.483-5.015c0.96-1.718,1.946-3.43,3.569-4.649c0.678-0.509,1.282-1.135,2.012-1.551
	c1.038-0.593,2.059-1.286,3.287-1.441c0.942-0.12,1.896-0.226,2.844-0.229c1.125-0.004,2.146,0.341,3.091,1.021
	c0.657,0.472,1.361,0.853,1.821,1.549c0.332,0.501,0.689,0.984,1.022,1.484c0.398,0.6,0.343,0.812-0.306,1.153
	c-0.75,0.395-1.512,0.766-2.257,1.17c-0.692,0.376-1.37,0.782-2.052,1.177c-0.29,0.168-0.464,0.135-0.723-0.149
	c-1.256-1.38-2.644-1.67-4.213-0.988c-1.563,0.681-2.913,1.768-3.654,3.399c-0.64,1.405-1.116,2.863-0.876,4.438
	c0.111,0.745,0.442,1.432,0.892,2.035c0.347,0.468,0.733,0.927,1.182,1.293c0.289,0.236,0.712,0.346,1.094,0.424
	c1.192,0.242,2.357,0.234,3.351-0.627c0.575-0.5,1.143-1.011,1.713-1.516c0.054-0.048,0.123-0.087,0.157-0.147
	c0.517-0.916,0.752-0.973,1.753-0.596c0.844,0.317,1.704,0.604,2.576,0.834c1.36,0.359,1.492,0.417,0.725,1.58
	c-0.672,1.018-1.203,2.144-2.171,2.998c-0.796,0.703-1.531,1.464-2.422,2.065C69.711,103.172,67.905,103.816,65.814,103.677z"/>
</svg>
